<?xml version="1.0" encoding="UTF-8"?>
<svg version="1.1" xmlns="http://www.w3.org/2000/svg" width="500" height="500">
<path d="M0 0 C1.64535233 -0.01566513 1.64535233 -0.01566513 3.32394409 -0.03164673 C19.23920322 -0.14974441 34.26923325 1.42421725 49.875 4.5 C51.49233956 4.80471443 53.1098422 5.10856512 54.72753906 5.41137695 C115.49990107 16.7881785 171.68006912 57.39929864 206.42236328 107.7421875 C225.68276144 136.36966455 238.11741284 166.97206445 245.875 200.5 C246.11653809 201.51175293 246.35807617 202.52350586 246.60693359 203.56591797 C253.55176583 233.98127941 253.25979055 271.21286961 245.875 301.5 C245.65537598 302.45680664 245.43575195 303.41361328 245.20947266 304.39941406 C234.24117125 351.82780867 211.30755363 392.296875 177.875 427.5 C176.69744141 428.74136719 176.69744141 428.74136719 175.49609375 430.0078125 C169.99404935 435.65749673 164.03956485 440.59297121 157.875 445.5 C157.08480469 446.15742188 156.29460937 446.81484375 155.48046875 447.4921875 C124.26144279 473.27506466 85.49437825 490.0225736 45.875 497.5 C45.1689563 497.63477753 44.4629126 497.76955505 43.73547363 497.90841675 C28.79224263 500.67390147 14.04247732 501.05876715 -1.125 501 C-2.34011261 500.99823761 -3.55522522 500.99647522 -4.80715942 500.99465942 C-22.78089699 500.93650444 -39.70034773 500.21917666 -57.125 495.5 C-58.66027344 495.10651367 -58.66027344 495.10651367 -60.2265625 494.70507812 C-98.3361728 484.84669879 -133.27144506 467.28476616 -163.125 441.5 C-163.92808594 440.80777344 -164.73117188 440.11554688 -165.55859375 439.40234375 C-176.32272218 429.91268813 -186.32276864 419.84412985 -195.125 408.5 C-196.14289143 407.2223871 -197.16114582 405.94506332 -198.1796875 404.66796875 C-206.01524234 394.743321 -212.81911441 384.4535379 -219.125 373.5 C-219.48400391 372.89043457 -219.84300781 372.28086914 -220.21289062 371.65283203 C-238.87523399 339.81444605 -250.07199012 300.38481251 -250.36328125 263.5 C-250.3730751 262.47421341 -250.38286896 261.44842682 -250.39295959 260.39155579 C-250.71408465 218.08917488 -250.71408465 218.08917488 -246.125 198.5 C-245.91069336 197.53819824 -245.69638672 196.57639648 -245.47558594 195.58544922 C-237.33071465 159.59744807 -221.56821783 126.70472781 -199.125 97.5 C-198.44953125 96.61054687 -197.7740625 95.72109375 -197.078125 94.8046875 C-191.51612094 87.65682278 -185.36895447 81.05054146 -179.125 74.5 C-178.65126953 74.00290527 -178.17753906 73.50581055 -177.68945312 72.99365234 C-171.23827789 66.27330115 -164.47780741 60.21256576 -157.125 54.5 C-156.55716797 54.05043945 -155.98933594 53.60087891 -155.40429688 53.13769531 C-125.42768597 29.46098178 -89.46344902 12.6067631 -52.125 4.5 C-51.29871094 4.30535156 -50.47242188 4.11070313 -49.62109375 3.91015625 C-33.22642208 0.17187791 -16.73197078 0.07671064 0 0 Z M-34.125 104.5 C-34.90520508 104.69335938 -35.68541016 104.88671875 -36.48925781 105.0859375 C-59.6458073 110.97735645 -80.13029914 121.80418163 -98.125 137.5 C-99.07503906 138.32757813 -100.02507812 139.15515625 -101.00390625 140.0078125 C-129.23251414 165.12551258 -146.57640066 201.28472925 -149.97753906 238.83227539 C-150.81500948 253.98300267 -149.75967974 269.74908693 -146.125 284.5 C-145.8451123 285.6461377 -145.8451123 285.6461377 -145.55957031 286.81542969 C-139.38058395 311.22684641 -127.75100948 333.43126501 -110.125 351.5 C-109.07675063 352.61060886 -108.02857903 353.72129113 -106.98046875 354.83203125 C-80.81518258 382.17084975 -44.91073661 398.75079479 -6.91015625 399.703125 C6.65257243 399.85966434 19.60590051 399.39513353 32.875 396.5 C34.76992188 396.09974609 34.76992188 396.09974609 36.703125 395.69140625 C62.46870795 389.52411246 84.76182459 375.56300093 103.875 357.5 C105.18404297 356.30503906 105.18404297 356.30503906 106.51953125 355.0859375 C126.80534779 335.87390524 139.03219005 310.24803306 145.875 283.5 C146.19726562 282.25734375 146.51953125 281.0146875 146.8515625 279.734375 C155.0364182 241.9463496 145.84791502 201.75052186 125.54833984 169.38476562 C120.37067715 161.48563697 114.41666515 154.30889003 107.875 147.5 C106.53695312 146.06720703 106.53695312 146.06720703 105.171875 144.60546875 C87.08890766 125.57594228 63.86176497 112.92896668 38.75 105.75 C37.71262695 105.45162231 37.71262695 105.45162231 36.65429688 105.1472168 C24.77152403 101.92643267 12.93333856 101.12195519 0.6875 101.1875 C-0.40224625 101.19073273 -0.40224625 101.19073273 -1.51400757 101.19403076 C-12.62466444 101.24685069 -23.32462097 101.72577514 -34.125 104.5 Z " fill="#01BF62" transform="translate(250.125,-0.5)"/>
<path d="M0 0 C1.64535233 -0.01566513 1.64535233 -0.01566513 3.32394409 -0.03164673 C19.22998866 -0.14967603 34.28334222 1.37973528 49.875 4.5 C51.31386566 4.78556763 51.31386566 4.78556763 52.78179932 5.0769043 C55.14687876 5.547979 57.51125638 6.02227531 59.875 6.5 C59.875 6.83 59.875 7.16 59.875 7.5 C58.85921875 7.46519531 57.8434375 7.43039063 56.796875 7.39453125 C42.52272183 7.04791057 28.11613388 8.98524345 17.0859375 19.1484375 C15.9367646 20.53731517 14.8976579 22.0154966 13.875 23.5 C12.93720703 24.38365234 12.93720703 24.38365234 11.98046875 25.28515625 C3.2006132 34.52110819 0.48231386 46.02976053 0.50366211 58.29077148 C0.80949271 69.22580161 4.64499669 78.6045016 10.875 87.5 C11.29136719 88.12390625 11.70773437 88.7478125 12.13671875 89.390625 C16.09518186 94.66857581 21.62778951 97.65326178 27.2421875 100.8984375 C28.54542969 101.69121094 28.54542969 101.69121094 29.875 102.5 C29.875 102.83 29.875 103.16 29.875 103.5 C29.12436279 103.43071289 28.37372559 103.36142578 27.6003418 103.29003906 C7.49070087 101.57285936 -14.42518149 100.43983257 -34.125 105.5 C-34.90520508 105.69335938 -35.68541016 105.88671875 -36.48925781 106.0859375 C-59.67267126 111.9841911 -80.08686929 122.82529907 -98.125 138.5 C-99.0015625 139.25410156 -99.878125 140.00820312 -100.78125 140.78515625 C-128.76195599 165.35255322 -145.64054 201.99280823 -148.97753906 238.83227539 C-149.81500948 253.98300267 -148.75967974 269.74908693 -145.125 284.5 C-144.9384082 285.2640918 -144.75181641 286.02818359 -144.55957031 286.81542969 C-138.31844615 311.47233515 -126.57383224 333.03710736 -109.125 351.5 C-107.42457042 353.47520626 -105.77261776 355.48033952 -104.125 357.5 C-107.38478572 356.0978651 -109.18791304 354.47506168 -111.5 351.8125 C-120.58229542 342.47508392 -133.15182713 338.3981879 -145.875 338.125 C-156.64615124 338.14368262 -165.17779298 341.45360577 -174.1640625 347.328125 C-176.125 348.5 -176.125 348.5 -178.125 348.5 C-178.125 349.16 -178.125 349.82 -178.125 350.5 C-178.970625 351.11875 -179.81625 351.7375 -180.6875 352.375 C-188.73265489 358.81874965 -192.53408308 369.70244588 -194.8125 379.4375 C-195.99713905 391.04696268 -194.08164112 401.30316648 -188.796875 411.7578125 C-188.57515625 412.33273437 -188.3534375 412.90765625 -188.125 413.5 C-188.455 414.16 -188.785 414.82 -189.125 415.5 C-200.59789078 403.64583491 -210.01819214 389.60968365 -218.11621094 375.28271484 C-219.09618841 373.55091536 -220.09856727 371.83185213 -221.1015625 370.11328125 C-239.12206495 338.49671314 -250.0758657 299.89406623 -250.36328125 263.5 C-250.3730751 262.47421341 -250.38286896 261.44842682 -250.39295959 260.39155579 C-250.71408465 218.08917488 -250.71408465 218.08917488 -246.125 198.5 C-245.91069336 197.53819824 -245.69638672 196.57639648 -245.47558594 195.58544922 C-237.33071465 159.59744807 -221.56821783 126.70472781 -199.125 97.5 C-198.44953125 96.61054687 -197.7740625 95.72109375 -197.078125 94.8046875 C-191.51612094 87.65682278 -185.36895447 81.05054146 -179.125 74.5 C-178.65126953 74.00290527 -178.17753906 73.50581055 -177.68945312 72.99365234 C-171.23827789 66.27330115 -164.47780741 60.21256576 -157.125 54.5 C-156.55716797 54.05043945 -155.98933594 53.60087891 -155.40429688 53.13769531 C-125.42768597 29.46098178 -89.46344902 12.6067631 -52.125 4.5 C-51.29871094 4.30535156 -50.47242188 4.11070313 -49.62109375 3.91015625 C-33.22642208 0.17187791 -16.73197078 0.07671064 0 0 Z " fill="#7ED957" transform="translate(250.125,-0.5)"/>
<path d="M0 0 C0.33 0 0.66 0 1 0 C0.85530469 1.79175893 0.70916739 3.58340142 0.5625 5.375 C0.48128906 6.37273437 0.40007812 7.37046875 0.31640625 8.3984375 C0.14619198 10.33593821 -0.0333885 12.27325292 -0.26928711 14.20385742 C-1.07378593 21.0396887 -0.99205791 27.69342269 -0.6875 34.5625 C-0.64117432 35.69478027 -0.59484863 36.82706055 -0.54711914 37.99365234 C-0.13456599 47.06209834 0.71130848 56.01669404 2 65 C1.01 65 0.02 65 -1 65 C-1.06058594 64.15695312 -1.12117188 63.31390625 -1.18359375 62.4453125 C-1.26738281 61.34960938 -1.35117188 60.25390625 -1.4375 59.125 C-1.51871094 58.03445313 -1.59992188 56.94390625 -1.68359375 55.8203125 C-1.83001703 53.05271029 -1.83001703 53.05271029 -3 51 C-3.1116357 48.04287352 -3.16413378 45.11007463 -3.16796875 42.15234375 C-3.17129715 41.26648087 -3.17462555 40.38061798 -3.17805481 39.46791077 C-3.18312553 37.5874178 -3.18546309 35.70691581 -3.18530273 33.82641602 C-3.18747276 30.97331459 -3.20558092 28.12061024 -3.22460938 25.26757812 C-3.2275467 23.43750132 -3.22952923 21.60742268 -3.23046875 19.77734375 C-3.23765427 18.93324448 -3.24483978 18.0891452 -3.25224304 17.21946716 C-3.19923304 3.19923304 -3.19923304 3.19923304 0 0 Z " fill="#98D87D" transform="translate(102,219)"/>
<path d="M0 0 C2.78670437 0.01618324 5.57198024 0.00002869 8.35864258 -0.01904297 C10.14966137 -0.01706205 11.94067928 -0.01322152 13.73168945 -0.00732422 C14.55474075 -0.01339691 15.37779205 -0.0194696 16.2257843 -0.02572632 C21.53160267 0.03846896 25.21684189 0.99645855 29.9621582 3.39111328 C27.25934231 4.364127 25.65991547 4.34761249 22.76635742 3.93115234 C16.24142643 3.00488182 9.66617033 3.15056184 3.0871582 3.14111328 C1.98248703 3.13760864 1.98248703 3.13760864 0.85549927 3.1340332 C-10.03163803 3.12096216 -20.44087001 3.67311136 -31.0378418 6.39111328 C-30.7078418 5.40111328 -30.3778418 4.41111328 -30.0378418 3.39111328 C-20.93543528 -0.88830138 -9.81731576 -0.06796402 0 0 Z " fill="#ABE196" transform="translate(248.037841796875,98.60888671875)"/>
<path d="M0 0 C1 3 1 3 1 5 C0.01 5.495 0.01 5.495 -1 6 C-1.28875 6.763125 -1.5775 7.52625 -1.875 8.3125 C-3.13401761 11.32015317 -4.71684906 12.71684906 -7 15 C-8.18013814 17.4782901 -9 19.25384186 -9 22 C-9.7425 22.20625 -10.485 22.4125 -11.25 22.625 C-14.85312998 24.42656499 -16.05168033 26.52085773 -18 30 C-18.76939681 32.22602615 -18.76939681 32.22602615 -19 34 C-20.98 34.495 -20.98 34.495 -23 35 C-21.39591626 30.48255335 -19.0930317 26.60430787 -16.5625 22.5625 C-16.13018066 21.86962891 -15.69786133 21.17675781 -15.25244141 20.46289062 C-10.66159437 13.24753004 -5.42465581 6.60034167 0 0 Z " fill="#8EDA71" transform="translate(55,92)"/>
<path d="M0 0 C2.31243792 -0.02685412 4.6249627 -0.04632841 6.9375 -0.0625 C8.22527344 -0.07410156 9.51304687 -0.08570313 10.83984375 -0.09765625 C14 0 14 0 15 1 C16.47396739 1.20768229 17.9549126 1.36716017 19.4375 1.5 C23.78082192 1.89041096 23.78082192 1.89041096 26 3 C27.61786836 3.19666997 29.2418909 3.34406266 30.8671875 3.46484375 C31.83527344 3.54283203 32.80335938 3.62082031 33.80078125 3.70117188 C35.84219793 3.85810416 37.88386797 4.01177645 39.92578125 4.16210938 C40.89644531 4.24138672 41.86710937 4.32066406 42.8671875 4.40234375 C43.75519043 4.46929443 44.64319336 4.53624512 45.55810547 4.60522461 C48.05951975 5.00962242 49.8133699 5.746455 52 7 C40.03627262 7.62023932 28.80141149 6.76467376 17 4.625 C15.77764648 4.40368408 14.55529297 4.18236816 13.29589844 3.9543457 C3.81642095 2.14389041 3.81642095 2.14389041 0 0 Z " fill="#45C987" transform="translate(189,493)"/>
<path d="M0 0 C3.42946991 3.10795711 6.03511865 6.38916078 8.6875 10.1875 C12.90168972 16.11798496 17.71614897 21.00849319 23 26 C20 26 20 26 18.23046875 24.27734375 C17.55628906 23.50519531 16.88210937 22.73304688 16.1875 21.9375 C8.92891047 14.41798079 -0.72598447 9.84932279 -11 8 C-11 7.67 -11 7.34 -11 7 C-7.7 7 -4.4 7 -1 7 C-1 7.66 -1 8.32 -1 9 C-0.34 9 0.32 9 1 9 C0.835 8.2575 0.67 7.515 0.5 6.75 C0 4 0 4 0 0 Z " fill="#88DF85" transform="translate(123,330)"/>
<path d="M0 0 C0.66 0.33 1.32 0.66 2 1 C-1.25695147 5.61401459 -5.24286757 9.00362438 -10 12 C-10.66 12 -11.32 12 -12 12 C-12.2578125 12.59683594 -12.515625 13.19367187 -12.78125 13.80859375 C-14.10058422 16.18085817 -15.3874932 17.38413125 -17.5 19.0625 C-19.93664912 21.00872186 -21.22262121 22.33393182 -23 25 C-23.99 25 -24.98 25 -26 25 C-26 25.66 -26 26.32 -26 27 C-27.32 26.67 -28.64 26.34 -30 26 C-20.72230924 16.36005667 -10.60145423 8.14086979 0 0 Z " fill="#9FDC86" transform="translate(102,47)"/>
<path d="M0 0 C1.06276314 3.76440006 0.91422069 6.84199237 0.5625 10.75 C0.46066406 11.92046875 0.35882812 13.0909375 0.25390625 14.296875 C0.17011719 15.18890625 0.08632812 16.0809375 0 17 C-0.66 17 -1.32 17 -2 17 C-2.5825878 21.71323085 -3.05700636 26.36586383 -3.2109375 31.11328125 C-3.23929687 31.96857422 -3.26765625 32.82386719 -3.296875 33.70507812 C-3.34953661 35.46265926 -3.39362596 37.22051555 -3.4296875 38.97851562 C-3.460625 39.82736328 -3.4915625 40.67621094 -3.5234375 41.55078125 C-3.54325684 42.31044189 -3.56307617 43.07010254 -3.58349609 43.8527832 C-4.09983612 46.51468853 -5.25788831 47.95962906 -7 50 C-7.25065941 41.4718179 -6.56117638 33.41189461 -5.1875 25 C-4.9390332 23.37191406 -4.9390332 23.37191406 -4.68554688 21.7109375 C-3.52286588 14.35752866 -1.92169526 7.19117317 0 0 Z " fill="#B6E5A0" transform="translate(7,186)"/>
<path d="M0 0 C0.33 0 0.66 0 1 0 C0.67513273 17.57236593 -4.49388846 34.43480485 -10 51 C-10.33 51 -10.66 51 -11 51 C-10.67 47.04 -10.34 43.08 -10 39 C-9.34 39 -8.68 39 -8 39 C-8.04125 38.278125 -8.0825 37.55625 -8.125 36.8125 C-8 34 -8 34 -7.1171875 31.96875 C-5.49241422 27.65117066 -4.80954622 23.21906146 -4 18.6875 C-2.86126933 12.39334415 -1.62504888 6.18824418 0 0 Z " fill="#5FCA94" transform="translate(497,282)"/>
<path d="M0 0 C1.9375 0.3125 1.9375 0.3125 4 1 C4.33 1.99 4.66 2.98 5 4 C5.99 4.66 6.98 5.32 8 6 C8.6875 9.125 8.6875 9.125 9 12 C9.99 12.33 10.98 12.66 12 13 C12.474375 13.680625 12.94875 14.36125 13.4375 15.0625 C13.953125 15.701875 14.46875 16.34125 15 17 C16.32 17 17.64 17 19 17 C18.835 17.9075 18.67 18.815 18.5 19.75 C17.89862854 23.11087503 17.89862854 23.11087503 18 27 C18.66 27 19.32 27 20 27 C20 28.65 20 30.3 20 32 C17.76495699 29.1719864 16.07094447 26.3333775 14.4375 23.125 C11.50438104 17.62910538 8.04428687 12.67510972 4.33959961 7.68408203 C2.45097023 5.1238833 1.01382039 3.04146116 0 0 Z " fill="#5FCA95" transform="translate(365,154)"/>
<path d="M0 0 C1.32 0.66 2.64 1.32 4 2 C-0.77022276 7.06327399 -5.9176438 11.48236756 -11.33203125 15.84375 C-14.61466881 18.49677479 -17.81070592 21.23594513 -21 24 C-21.66 23.67 -22.32 23.34 -23 23 C-22.505 21.515 -22.505 21.515 -22 20 C-21.34 20 -20.68 20 -20 20 C-19.67 19.01 -19.34 18.02 -19 17 C-18.34 17.33 -17.68 17.66 -17 18 C-17 17.34 -17 16.68 -17 16 C-16.34 16 -15.68 16 -15 16 C-15 15.34 -15 14.68 -15 14 C-14.34 13.34 -13.68 12.68 -13 12 C-11.68 12 -10.36 12 -9 12 C-9 11.01 -9 10.02 -9 9 C-8.01 9 -7.02 9 -6 9 C-6 8.01 -6 7.02 -6 6 C-5.01 6 -4.02 6 -3 6 C-3 5.34 -3 4.68 -3 4 C-2.34 4 -1.68 4 -1 4 C-0.67 2.68 -0.34 1.36 0 0 Z " fill="#54C890" transform="translate(422,427)"/>
<path d="M0 0 C0.33 0 0.66 0 1 0 C3.35728699 13.11383928 4.15005676 25.71164028 4 39 C3.67 39 3.34 39 3 39 C0.80218066 25.89491765 -0.43810459 13.28917253 0 0 Z " fill="#A8E291" transform="translate(0,256)"/>
<path d="M0 0 C0 0.33 0 0.66 0 1 C-12.453892 3.16365445 -24.35681738 4.44218385 -37 4 C-37 3.67 -37 3.34 -37 3 C-30.58020624 1.40638823 -24.5384654 0.6174226 -17.9375 0.375 C-17.09123047 0.33632813 -16.24496094 0.29765625 -15.37304688 0.2578125 C-10.2446394 0.0363855 -5.13284297 -0.03560354 0 0 Z " fill="#6AD29C" transform="translate(296,496)"/>
<path d="M0 0 C0.33 0 0.66 0 1 0 C0.54177532 3.46941546 0.10868317 6.67395049 -1 10 C-1.08209792 11.77313851 -1.10746294 13.54920775 -1.09765625 15.32421875 C-1.09443359 16.35224609 -1.09121094 17.38027344 -1.08789062 18.43945312 C-1.07951172 19.51130859 -1.07113281 20.58316406 -1.0625 21.6875 C-1.05798828 22.77095703 -1.05347656 23.85441406 -1.04882812 24.97070312 C-1.03703743 27.64719085 -1.02058063 30.32356777 -1 33 C-0.34 33 0.32 33 1 33 C1.33 35.64 1.66 38.28 2 41 C-3.30851532 34.72494827 -4.54831087 25.62804236 -4.30078125 17.58984375 C-3.60157456 11.56940171 -1.91234542 5.73703625 0 0 Z " fill="#1DBC55" transform="translate(58,367)"/>
<path d="M0 0 C0.33 0.66 0.66 1.32 1 2 C0.16476973 4.07631186 -0.76972412 6.11310046 -1.75 8.125 C-4.09004761 13.02821605 -6.19277145 17.8795191 -8 23 C-8.66 22.67 -9.32 22.34 -10 22 C-9.67 19.69 -9.34 17.38 -9 15 C-9.66 14.67 -10.32 14.34 -11 14 C-10.01 13.01 -9.02 12.02 -8 11 C-7.34 11.33 -6.68 11.66 -6 12 C-5.67 10.02 -5.34 8.04 -5 6 C-4.34 6 -3.68 6 -3 6 C-2.87625 5.195625 -2.7525 4.39125 -2.625 3.5625 C-2.41875 2.716875 -2.2125 1.87125 -2 1 C-1.34 0.67 -0.68 0.34 0 0 Z " fill="#98DC7B" transform="translate(116,181)"/>
<path d="M0 0 C-0.99 0.33 -1.98 0.66 -3 1 C-3 1.66 -3 2.32 -3 3 C-5.05078125 3.22786458 -7.1015625 3.45572917 -9.15234375 3.68359375 C-11.01140229 3.81886614 -11.01140229 3.81886614 -12 5 C-19.96712917 7.08300896 -27.81353632 7.23427082 -36 7 C-36 6.67 -36 6.34 -36 6 C-34.80246094 5.82984375 -33.60492188 5.6596875 -32.37109375 5.484375 C-22.96932414 4.09985123 -13.92242291 2.37953576 -4.80859375 -0.328125 C-2 -1 -2 -1 0 0 Z " fill="#71D1A1" transform="translate(300,392)"/>
<path d="M0 0 C2.44069933 2.37290212 4.74464346 4.64888475 6.75 7.40625 C9.38173112 10.44005115 12.31693841 12.32434236 15.75 14.3125 C16.35199219 14.67150391 16.95398438 15.03050781 17.57421875 15.40039062 C19.04440804 16.2755033 20.52151591 17.13897531 22 18 C21.34 18.33 20.68 18.66 20 19 C17.8359375 18.22265625 17.8359375 18.22265625 15.375 17.0625 C14.55773437 16.68222656 13.74046875 16.30195312 12.8984375 15.91015625 C12.27195312 15.60980469 11.64546875 15.30945313 11 15 C11 14.34 11 13.68 11 13 C10.01 13 9.02 13 8 13 C7.525625 12.34 7.05125 11.68 6.5625 11 C6.046875 10.34 5.53125 9.68 5 9 C3.68 9 2.36 9 1 9 C1.33 7.35 1.66 5.7 2 4 C1.34 4 0.68 4 0 4 C0 2.68 0 1.36 0 0 Z " fill="#6BD966" transform="translate(258,84)"/>
<path d="M0 0 C4.31784088 0.4797601 6.33046819 2.71442239 9 6 C10.24150932 8.94119469 11.17419062 11.91832109 12 15 C7.02885248 11.53526082 3.35279405 7.0050355 0 2 C0 1.34 0 0.68 0 0 Z " fill="#85DE84" transform="translate(50,400)"/>
<path d="M0 0 C0.33 0.99 0.66 1.98 1 3 C-3.75 7.875 -3.75 7.875 -6 9 C-6 9.99 -6 10.98 -6 12 C-8.62689759 15.21065261 -11.0873016 16.6957672 -15 18 C-13.66465724 15.05886531 -12.17535119 12.89154831 -9.9609375 10.546875 C-9.38085938 9.928125 -8.80078125 9.309375 -8.203125 8.671875 C-7.59984375 8.03765625 -6.9965625 7.4034375 -6.375 6.75 C-5.76398438 6.1003125 -5.15296875 5.450625 -4.5234375 4.78125 C-3.01971926 3.18354937 -1.51184263 1.59000851 0 0 Z " fill="#B4E49F" transform="translate(71,74)"/>
<path d="M0 0 C2.05078125 0.03255208 4.1015625 0.06510417 6.15234375 0.09765625 C2.24244083 2.7042582 -1.64679846 3.55088638 -6.16015625 4.72265625 C-7.42375977 5.06683594 -7.42375977 5.06683594 -8.71289062 5.41796875 C-13.1958456 6.59566451 -17.1695065 7.38765575 -21.84765625 7.09765625 C-21.84765625 6.76765625 -21.84765625 6.43765625 -21.84765625 6.09765625 C-18.02445068 4.67506813 -14.9348432 3.85723349 -10.84765625 4.09765625 C-10.84765625 3.43765625 -10.84765625 2.77765625 -10.84765625 2.09765625 C-8.796875 1.86979167 -6.74609375 1.64192708 -4.6953125 1.4140625 C-2.51789177 1.04118495 -2.21147387 0.11688551 0 0 Z " fill="#7DD7A6" transform="translate(317.84765625,488.90234375)"/>
<path d="M0 0 C0.66 0.33 1.32 0.66 2 1 C-2.25803759 7.03221993 -8.45296751 11.63295472 -15 15 C-15.99 15 -16.98 15 -18 15 C-12.2190161 9.66917468 -6.40900977 4.56507679 0 0 Z " fill="#ACE196" transform="translate(102,47)"/>
<path d="M0 0 C0.33 0 0.66 0 1 0 C0.8864371 1.64666203 0.75882619 3.29236082 0.625 4.9375 C0.55539063 5.85402344 0.48578125 6.77054688 0.4140625 7.71484375 C0.27742188 8.46894531 0.14078125 9.22304687 0 10 C-0.99 10.495 -0.99 10.495 -2 11 C-4.55432523 17.11110263 -6.40015015 23.4016516 -7 30 C-7.66 30 -8.32 30 -9 30 C-8.44933634 23.43792468 -6.75542539 17.79345257 -4.5 11.625 C-4.17902344 10.72394531 -3.85804687 9.82289063 -3.52734375 8.89453125 C-1.20076885 2.4015377 -1.20076885 2.4015377 0 0 Z " fill="#BCE8A9" transform="translate(17,156)"/>
<path d="M0 0 C0.66 0.99 1.32 1.98 2 3 C1.34434512 4.73748543 0.67297077 6.4734055 -0.12890625 8.1484375 C-1.32449544 10.68973471 -2.1522288 13.32626006 -3 16 C-3.99 16 -4.98 16 -6 16 C-6 16.99 -6 17.98 -6 19 C-6.66 19 -7.32 19 -8 19 C-6.00386732 12.2813095 -3.2708579 6.19265192 0 0 Z " fill="#A5DF8B" transform="translate(28,132)"/>
<path d="M0 0 C1.32 0.33 2.64 0.66 4 1 C2.31991577 4.78248472 -0.07838554 7.9692422 -2.5625 11.25 C-2.97435547 11.80429687 -3.38621094 12.35859375 -3.81054688 12.9296875 C-4.84693249 14.30701175 -5.92038579 15.6562923 -7 17 C-7.33 17 -7.66 17 -8 17 C-8.1875 14.625 -8.1875 14.625 -8 12 C-7.01 11.34 -6.02 10.68 -5 10 C-4.27617533 7.94074861 -4.27617533 7.94074861 -4 6 C-2.68 6 -1.36 6 0 6 C0 4.02 0 2.04 0 0 Z " fill="#50C98E" transform="translate(449,395)"/>
<path d="M0 0 C1.58193864 2.37290796 2.53089868 4.11962201 3.5078125 6.72265625 C3.90419922 7.77743164 3.90419922 7.77743164 4.30859375 8.85351562 C4.57800781 9.58248047 4.84742187 10.31144531 5.125 11.0625 C5.40214844 11.79533203 5.67929688 12.52816406 5.96484375 13.28320312 C8 18.74203356 8 18.74203356 8 21 C4.84079976 20.01955855 4.00996841 19.01698322 2.3125 16.125 C0.30637682 10.98976077 0.25954185 5.45037883 0 0 Z " fill="#A2DD8A" transform="translate(106,292)"/>
<path d="M0 0 C0.33 0 0.66 0 1 0 C1.45273794 9.31885595 1.57742367 17.54680154 -3 26 C-3.66 26.33 -4.32 26.66 -5 27 C-4.82609741 26.09290283 -4.82609741 26.09290283 -4.64868164 25.16748047 C-4.11921558 22.40346126 -3.59084877 19.63923299 -3.0625 16.875 C-2.88009766 15.92367188 -2.69769531 14.97234375 -2.50976562 13.9921875 C-1.6205039 9.33568976 -0.74875406 4.68168331 0 0 Z " fill="#63CD98" transform="translate(398,266)"/>
<path d="M0 0 C0.33 0 0.66 0 1 0 C1.05534912 0.64437012 1.11069824 1.28874023 1.16772461 1.95263672 C1.42360551 4.92681946 1.68054734 7.90090967 1.9375 10.875 C2.02451172 11.88820313 2.11152344 12.90140625 2.20117188 13.9453125 C2.75129655 20.30230874 3.34627622 26.65280844 4 33 C3.01 33 2.02 33 1 33 C0.16941486 21.97991499 -0.12308347 11.05016019 0 0 Z " fill="#B4E59D" transform="translate(100,251)"/>
<path d="M0 0 C0.66 0 1.32 0 2 0 C2.12117187 0.60328125 2.24234375 1.2065625 2.3671875 1.828125 C2.53476563 2.62734375 2.70234375 3.4265625 2.875 4.25 C3.03742188 5.03890625 3.19984375 5.8278125 3.3671875 6.640625 C3.91790637 9.01770839 3.91790637 9.01770839 5.0703125 11.109375 C6 13 6 13 6 16 C7.32 16 8.64 16 10 16 C10.33 18.64 10.66 21.28 11 24 C5.21698582 18.73131029 1.08777687 11.06384123 0.125 3.25 C0.08375 2.1775 0.0425 1.105 0 0 Z " fill="#14BB56" transform="translate(251,64)"/>
<path d="M0 0 C11.55 0.33 23.1 0.66 35 1 C35 1.33 35 1.66 35 2 C23.78 2.33 12.56 2.66 1 3 C0.67 2.01 0.34 1.02 0 0 Z " fill="#8BDCB1" transform="translate(229,398)"/>
<path d="M0 0 C4.33304076 0.64465202 7.86672065 2.18925122 11.8125 4.0625 C12.97394531 4.61035156 14.13539063 5.15820312 15.33203125 5.72265625 C16.21246094 6.14417969 17.09289062 6.56570312 18 7 C18 7.33 18 7.66 18 8 C12.76119922 7.44854729 8.02649303 6.57077907 3 5 C3 4.34 3 3.68 3 3 C2.01 3 1.02 3 0 3 C0 2.01 0 1.02 0 0 Z " fill="#4AC88D" transform="translate(339,16)"/>
<path d="M0 0 C-2.92620616 2.27291362 -5.94024212 4.23315875 -9.125 6.125 C-9.99382812 6.64320312 -10.86265625 7.16140625 -11.7578125 7.6953125 C-13.14874374 8.5046697 -14.56062547 9.28031273 -16 10 C-16 8.68 -16 7.36 -16 6 C-13.69 5.34 -11.38 4.68 -9 4 C-9.33 3.01 -9.66 2.02 -10 1 C-6.1496895 -1.56687367 -4.41430237 -0.83288724 0 0 Z " fill="#6DDB60" transform="translate(282,9)"/>
<path d="M0 0 C0.66 0.33 1.32 0.66 2 1 C0.88266271 2.50571657 -0.24410035 4.00444292 -1.375 5.5 C-2.00148438 6.3353125 -2.62796875 7.170625 -3.2734375 8.03125 C-3.84320313 8.6809375 -4.41296875 9.330625 -5 10 C-5.66 10 -6.32 10 -7 10 C-7 10.99 -7 11.98 -7 13 C-7.97850195 14.02104551 -8.97980427 15.0206121 -10 16 C-10.33 16.99 -10.66 17.98 -11 19 C-11.66 19 -12.32 19 -13 19 C-11.61476132 12.99729906 -8.18163216 8.41100439 -4 4 C-1.7734375 2.734375 -1.7734375 2.734375 0 2 C0 1.34 0 0.68 0 0 Z " fill="#1DBD54" transform="translate(72,348)"/>
<path d="M0 0 C6.41923331 0.29112169 10.62100206 1.45215029 16 5 C16 5.66 16 6.32 16 7 C17.32 7.33 18.64 7.66 20 8 C19.01 8.495 19.01 8.495 18 9 C15.2698323 7.97324512 12.65296228 6.88643488 10 5.6875 C9.26265625 5.36587891 8.5253125 5.04425781 7.765625 4.71289062 C2.27170567 2.27170567 2.27170567 2.27170567 0 0 Z " fill="#70D2A1" transform="translate(138,474)"/>
<path d="M0 0 C16.37669095 1.27523413 16.37669095 1.27523413 20 5.125 C20.33 5.74375 20.66 6.3625 21 7 C13.78069368 5.55613874 6.94889267 3.42211826 0 1 C0 0.67 0 0.34 0 0 Z " fill="#72D2A1" transform="translate(167,486)"/>
<path d="M0 0 C3 0 3 0 6 1 C5.835 1.9075 5.67 2.815 5.5 3.75 C4.89862854 7.11087503 4.89862854 7.11087503 5 11 C5.66 11 6.32 11 7 11 C7 12.65 7 14.3 7 16 C3.04961337 11.25953605 0 6.21355834 0 0 Z " fill="#1EBF70" transform="translate(378,170)"/>
<path d="M0 0 C0.66 0.33 1.32 0.66 2 1 C0.6875 3 0.6875 3 -1 5 C-1.99 5 -2.98 5 -4 5 C-4.66 6.32 -5.32 7.64 -6 9 C-6.66 9 -7.32 9 -8 9 C-8.33 9.66 -8.66 10.32 -9 11 C-9.99 11 -10.98 11 -12 11 C-12.66 11.66 -13.32 12.32 -14 13 C-14.66 12.34 -15.32 11.68 -16 11 C-15.26394531 10.54109375 -14.52789062 10.0821875 -13.76953125 9.609375 C-12.79371094 8.99578125 -11.81789063 8.3821875 -10.8125 7.75 C-9.84957031 7.14671875 -8.88664062 6.5434375 -7.89453125 5.921875 C-5.12594673 4.08362455 -2.56042049 2.11574051 0 0 Z " fill="#5ECD99" transform="translate(340,368)"/>
<path d="M0 0 C2.11790506 3.90644234 2.71553894 7.69642472 3.25 12.0625 C3.353125 12.78244141 3.45625 13.50238281 3.5625 14.24414062 C4.24325478 19.63511783 4.24325478 19.63511783 2 23 C1.0699111 20.2097333 0.81301231 18.23470458 0.68359375 15.33203125 C0.64169922 14.43935547 0.59980469 13.54667969 0.55664062 12.62695312 C0.51732422 11.69818359 0.47800781 10.76941406 0.4375 9.8125 C0.39431641 8.87212891 0.35113281 7.93175781 0.30664062 6.96289062 C0.20061335 4.64207146 0.09854971 2.32114675 0 0 Z " fill="#5CCB91" transform="translate(494,196)"/>
<path d="M0 0 C0.33 0.66 0.66 1.32 1 2 C-0.19427286 4.73650671 -1.44471772 7.35238083 -2.8125 10 C-3.18181641 10.73734375 -3.55113281 11.4746875 -3.93164062 12.234375 C-6.71898191 17.71898191 -6.71898191 17.71898191 -9 20 C-8.67 17.36 -8.34 14.72 -8 12 C-7.34 12 -6.68 12 -6 12 C-6 11.34 -6 10.68 -6 10 C-5.34 10 -4.68 10 -4 10 C-4 8.35 -4 6.7 -4 5 C-3.34 5 -2.68 5 -2 5 C-2 3.68 -2 2.36 -2 1 C-1.34 0.67 -0.68 0.34 0 0 Z " fill="#66CF99" transform="translate(479,349)"/>
<path d="M0 0 C0.99 0 1.98 0 3 0 C3 0.66 3 1.32 3 2 C3.99 2.33 4.98 2.66 6 3 C3.20803989 6.28465896 -0.23196817 8.01321958 -4 10 C-4.66 10 -5.32 10 -6 10 C-6 9.34 -6 8.68 -6 8 C-4.35 7.67 -2.7 7.34 -1 7 C-0.67 4.69 -0.34 2.38 0 0 Z " fill="#43C888" transform="translate(380,457)"/>
<path d="M0 0 C2.64 0.99 5.28 1.98 8 3 C8.33 5.31 8.66 7.62 9 10 C8.01 10 7.02 10 6 10 C4.39453125 8.3203125 4.39453125 8.3203125 2.8125 6.125 C2.01779297 5.04605469 2.01779297 5.04605469 1.20703125 3.9453125 C0 2 0 2 0 0 Z " fill="#9EDD83" transform="translate(42,389)"/>
<path d="M0 0 C3.71045247 1.57780923 6.29906384 3.90703248 9.25 6.625 C10.14203125 7.44226562 11.0340625 8.25953125 11.953125 9.1015625 C12.96632813 10.04128906 12.96632813 10.04128906 14 11 C13.01 11.33 12.02 11.66 11 12 C10.01 11.34 9.02 10.68 8 10 C8.33 9.34 8.66 8.68 9 8 C7.68 7.67 6.36 7.34 5 7 C5 6.34 5 5.68 5 5 C3.68 4.67 2.36 4.34 1 4 C0.67 2.68 0.34 1.36 0 0 Z " fill="#44C585" transform="translate(404,53)"/>
<path d="M0 0 C0.66 0 1.32 0 2 0 C2 0.99 2 1.98 2 3 C2.99 3.33 3.98 3.66 5 4 C5 8.62 5 13.24 5 18 C3.05931469 14.11862939 2.23558073 10.97466903 1.375 6.75 C1.11460937 5.48671875 0.85421875 4.2234375 0.5859375 2.921875 C0.39257812 1.95765625 0.19921875 0.9934375 0 0 Z " fill="#52CA90" transform="translate(392,204)"/>
<path d="M0 0 C1.485 0.99 1.485 0.99 3 2 C3 2.99 3 3.98 3 5 C3.99 5.33 4.98 5.66 6 6 C7.18519265 8.43276386 8 10.28017286 8 13 C8.99 13.33 9.98 13.66 11 14 C11.33 14.99 11.66 15.98 12 17 C11.01 17 10.02 17 9 17 C7.28523782 14.56557079 5.78519269 12.19927621 4.3125 9.625 C3.68891602 8.57699219 3.68891602 8.57699219 3.05273438 7.5078125 C0 2.29460437 0 2.29460437 0 0 Z " fill="#B4E39F" transform="translate(31,371)"/>
<path d="M0 0 C1.73017508 0.45451184 3.45909877 0.91378857 5.1875 1.375 C6.15042969 1.63023438 7.11335938 1.88546875 8.10546875 2.1484375 C10.82210207 2.94766296 13.39137175 3.9031362 16 5 C16 5.33 16 5.66 16 6 C9.67721029 5.67373505 4.44535609 5.38495108 -1 2 C-0.67 1.34 -0.34 0.68 0 0 Z " fill="#5CC991" transform="translate(322,10)"/>
<path d="M0 0 C4.62 0 9.24 0 14 0 C14.33 0.99 14.66 1.98 15 3 C15.99 3.33 16.98 3.66 18 4 C11.7945858 3.51679152 6.00054754 2.66681876 0 1 C0 0.67 0 0.34 0 0 Z " fill="#78D5A7" transform="translate(189,493)"/>
<path d="M0 0 C7.00501741 2.23564385 11.07671682 6.67481615 16 12 C14 13 14 13 12.0625 12.375 C10 11 10 11 8.5 8.4375 C7.27226631 5.84485542 7.27226631 5.84485542 5 5.375 C4.34 5.25125 3.68 5.1275 3 5 C1.25 3.5625 1.25 3.5625 0 2 C0 1.34 0 0.68 0 0 Z " fill="#12B75D" transform="translate(127,343)"/>
<path d="M0 0 C3.59391114 1.33488128 6.75490696 2.96022723 10 5 C9.34 5.66 8.68 6.32 8 7 C7.01 7 6.02 7 5 7 C4.01 7.33 3.02 7.66 2 8 C2 7.34 2 6.68 2 6 C1.34 6 0.68 6 0 6 C0 4.02 0 2.04 0 0 Z " fill="#38C780" transform="translate(369,30)"/>
<path d="M0 0 C0.66 0 1.32 0 2 0 C2.08153933 1.58246707 2.13943557 3.16616273 2.1875 4.75 C2.23970703 6.07257813 2.23970703 6.07257813 2.29296875 7.421875 C1.94923684 10.44671583 0.99772541 11.75583602 -1 14 C-1.02694851 12.04174127 -1.04637218 10.08337774 -1.0625 8.125 C-1.07410156 7.03445312 -1.08570312 5.94390625 -1.09765625 4.8203125 C-1 2 -1 2 0 0 Z " fill="#9FDE84" transform="translate(1,222)"/>
<path d="M0 0 C0.99 0.33 1.98 0.66 3 1 C3.33848652 2.89492006 3.67056911 4.79098466 4 6.6875 C4.185625 7.74324219 4.37125 8.79898437 4.5625 9.88671875 C4.95068074 12.64904062 5.08259976 15.21742043 5 18 C3.03723564 15.05585347 2.28266038 12.94101364 1.375 9.5625 C0.98441406 8.14130859 0.98441406 8.14130859 0.5859375 6.69140625 C0 4 0 4 0 0 Z " fill="#B3E39E" transform="translate(6,306)"/>
<path d="M0 0 C7.11341265 -0.45164525 11.71546794 0.67202085 18 4 C13.93714243 5.63129887 10.79897816 4.29968777 6.75 3.0625 C5.48671875 2.68222656 4.2234375 2.30195312 2.921875 1.91015625 C1.95765625 1.60980469 0.9934375 1.30945313 0 1 C0 0.67 0 0.34 0 0 Z " fill="#62CF99" transform="translate(280,103)"/>
<path d="M0 0 C0.5859375 1.875 0.5859375 1.875 1 4 C-0.375 6 -0.375 6 -2 8 C-2.70514846 10.14733927 -2.70514846 10.14733927 -3 12 C-4.32 12.33 -5.64 12.66 -7 13 C-5.35821735 8.22390502 -2.73453298 4.20617096 0 0 Z " fill="#AAE091" transform="translate(39,114)"/>
<path d="M0 0 C3.25516428 3.16474305 6.32008793 6.32752791 9 10 C9 10.66 9 11.32 9 12 C7.125 11.6875 7.125 11.6875 5 11 C3 8 3 8 3 5 C2.01 5 1.02 5 0 5 C0 3.35 0 1.7 0 0 Z " fill="#57CA93" transform="translate(444,92)"/>
<path d="M0 0 C0.33 0.66 0.66 1.32 1 2 C0.10333658 4.24310013 -0.89146683 6.44754321 -1.9375 8.625 C-2.50339844 9.81351563 -3.06929688 11.00203125 -3.65234375 12.2265625 C-4.09707031 13.14179688 -4.54179688 14.05703125 -5 15 C-5.33 15 -5.66 15 -6 15 C-5.67 12.03 -5.34 9.06 -5 6 C-4.34 6 -3.68 6 -3 6 C-2.87625 5.195625 -2.7525 4.39125 -2.625 3.5625 C-2.41875 2.716875 -2.2125 1.87125 -2 1 C-1.34 0.67 -0.68 0.34 0 0 Z " fill="#AEE298" transform="translate(116,181)"/>
<path d="M0 0 C1 3 1 3 1 5 C-0.75 6.7265625 -0.75 6.7265625 -3 8.625 C-3.7425 9.25664063 -4.485 9.88828125 -5.25 10.5390625 C-5.8275 11.02117187 -6.405 11.50328125 -7 12 C-7 8.19654123 -5.86213669 7.22298985 -3.5 4.3125 C-2.8503125 3.50425781 -2.200625 2.69601563 -1.53125 1.86328125 C-1.0259375 1.24839844 -0.520625 0.63351563 0 0 Z " fill="#ABE196" transform="translate(55,92)"/>
<path d="M0 0 C4.81033104 2.54664585 8.32442148 4.99027798 12 9 C8.4257023 8.67506385 6.44287547 8.36129314 3.625 6.0625 C2 4 2 4 2 2 C1.34 2 0.68 2 0 2 C0 1.34 0 0.68 0 0 Z " fill="#59CA91" transform="translate(392,44)"/>
<path d="M0 0 C6.19887485 -0.37952295 10.4477112 0.1647887 16 3 C16 3.33 16 3.66 16 4 C14.27014758 3.88487847 12.54111249 3.75744323 10.8125 3.625 C9.84957031 3.55539062 8.88664063 3.48578125 7.89453125 3.4140625 C4.98491062 2.99784147 2.67109226 2.20125904 0 1 C0 0.67 0 0.34 0 0 Z " fill="#61CC97" transform="translate(204,495)"/>
<path d="M0 0 C0 3.95880469 -1.4376079 5.07155188 -4 8 C-4.495 8.61875 -4.99 9.2375 -5.5 9.875 C-6.2425 10.431875 -6.2425 10.431875 -7 11 C-8.32 10.67 -9.64 10.34 -11 10 C-5.555 5.05 -5.555 5.05 0 0 Z " fill="#62D09C" transform="translate(353,357)"/>
<path d="M0 0 C3.42931954 3.7559214 4.56429083 8.23466745 6 13 C2.47185944 11.82395315 1.74253345 11.23613354 0 8 C-0.2497035 5.27927227 -0.13713111 2.7426221 0 0 Z " fill="#51C98D" transform="translate(474,139)"/>
<path d="M0 0 C3.3 0.33 6.6 0.66 10 1 C10.33 2.65 10.66 4.3 11 6 C6.49197399 4.74194623 3.5087188 3.09592835 0 0 Z " fill="#49C88B" transform="translate(317,116)"/>
<path d="M0 0 C1.98 0 3.96 0 6 0 C5.04578192 1.14926266 4.08647955 2.29430541 3.125 3.4375 C2.59132813 4.07558594 2.05765625 4.71367187 1.5078125 5.37109375 C0 7 0 7 -2 8 C-2.33 7.01 -2.66 6.02 -3 5 C-2.34 5 -1.68 5 -1 5 C-1 4.34 -1 3.68 -1 3 C-0.34 3 0.32 3 1 3 C0.67 2.01 0.34 1.02 0 0 Z " fill="#51CB93" transform="translate(428,420)"/>
<path d="M0 0 C0.99 0 1.98 0 3 0 C3 0.66 3 1.32 3 2 C4.32 2 5.64 2 7 2 C7.33 4.31 7.66 6.62 8 9 C1.42857143 3.85714286 1.42857143 3.85714286 0 0 Z " fill="#57CC8F" transform="translate(62,415)"/>
<path d="M0 0 C1.32 0.33 2.64 0.66 4 1 C3.62875 1.886875 3.2575 2.77375 2.875 3.6875 C1.89215772 7.40826005 2.23937836 8.67438135 4 12 C3.34 12 2.68 12 2 12 C-0.60018816 8.09971775 -0.15085514 4.52565431 0 0 Z " fill="#0FBA61" transform="translate(60,403)"/>
<path d="M0 0 C2.52394612 3.12488567 4.39701907 6.31314387 6 10 C5.67 10.66 5.34 11.32 5 12 C4.01 11.67 3.02 11.34 2 11 C2 9.35 2 7.7 2 6 C1.34 6 0.68 6 0 6 C0 4.02 0 2.04 0 0 Z " fill="#A8DF8E" transform="translate(114,313)"/>
<path d="M0 0 C0.66 0 1.32 0 2 0 C1.71572583 1.58467728 1.42225182 3.1677057 1.125 4.75 C0.88136719 6.07257813 0.88136719 6.07257813 0.6328125 7.421875 C0 10 0 10 -2 14 C-2 10.37 -2 6.74 -2 3 C-1.34 3 -0.68 3 0 3 C0 2.01 0 1.02 0 0 Z " fill="#A7E291" transform="translate(105,205)"/>
<path d="M0 0 C0.33 1.32 0.66 2.64 1 4 C0.34 4 -0.32 4 -1 4 C-1.061875 4.763125 -1.12375 5.52625 -1.1875 6.3125 C-2 9 -2 9 -4.5625 10.8125 C-5.366875 11.204375 -6.17125 11.59625 -7 12 C-5.61735163 9.13132769 -4.07851447 6.43975968 -2.375 3.75 C-1.92898438 3.04359375 -1.48296875 2.3371875 -1.0234375 1.609375 C-0.68570312 1.07828125 -0.34796875 0.5471875 0 0 Z " fill="#61D09A" transform="translate(378,326)"/>
<path d="M0 0 C5.35048061 0.37328935 7.50912907 1.9957657 11 6 C7.61121488 6 6.60242783 5.35638802 3.8125 3.5625 C2.73935547 2.88380859 2.73935547 2.88380859 1.64453125 2.19140625 C1.10183594 1.79824219 0.55914062 1.40507812 0 1 C0 0.67 0 0.34 0 0 Z " fill="#65CF9A" transform="translate(103,453)"/>
<path d="M0 0 C3 1 3 1 5 4 C5 5.32 5 6.64 5 8 C5.66 8.33 6.32 8.66 7 9 C6.34 9.66 5.68 10.32 5 11 C4.16151196 9.54462432 3.32936066 8.08559627 2.5 6.625 C1.80390625 5.40683594 1.80390625 5.40683594 1.09375 4.1640625 C0 2 0 2 0 0 Z " fill="#B3E299" transform="translate(25,360)"/>
<path d="M0 0 C2.31 1.98 4.62 3.96 7 6 C6.01 6.66 5.02 7.32 4 8 C4 7.34 4 6.68 4 6 C2.68 6 1.36 6 0 6 C0 4.02 0 2.04 0 0 Z " fill="#50CC92" transform="translate(146,357)"/>
<path d="M0 0 C3.39417765 3.12621626 5.6062718 5.56541027 7 10 C2.37837838 8.54054054 2.37837838 8.54054054 0.6875 6.125 C0 4 0 4 0 0 Z " fill="#A8E090" transform="translate(123,330)"/>
<path d="M0 0 C1.14926266 0.95421808 2.29430541 1.91352045 3.4375 2.875 C4.07558594 3.40867187 4.71367187 3.94234375 5.37109375 4.4921875 C7 6 7 6 8 8 C5.6875 8.3125 5.6875 8.3125 3 8 C0.75756777 5.13896577 0 3.65923696 0 0 Z " fill="#61CD99" transform="translate(426,72)"/>
<path d="M0 0 C0.66 0.33 1.32 0.66 2 1 C-1.48720616 5.3590077 -4.72760915 5.94552183 -10 7 C-7.20283196 3.70921407 -3.80471422 1.93694542 0 0 Z " fill="#B2E39D" transform="translate(129,30)"/>
<path d="M0 0 C3.3 0 6.6 0 10 0 C6.28633571 1.85683215 3.7841109 2.51111356 -0.25 3.125 C-1.32765625 3.29257813 -2.4053125 3.46015625 -3.515625 3.6328125 C-4.33546875 3.75398437 -5.1553125 3.87515625 -6 4 C-5.34 3.34 -4.68 2.68 -4 2 C-2.68 2 -1.36 2 0 2 C0 1.34 0 0.68 0 0 Z " fill="#69DA65" transform="translate(288,5)"/>
<path d="M0 0 C1.32 0 2.64 0 4 0 C4 0.66 4 1.32 4 2 C-1.2734375 5.22265625 -1.2734375 5.22265625 -3 6 C-3.66 5.67 -4.32 5.34 -5 5 C-4.67 4.01 -4.34 3.02 -4 2 C-2.68 2 -1.36 2 0 2 C0 1.34 0 0.68 0 0 Z " fill="#61CE9A" transform="translate(365,469)"/>
<path d="M0 0 C2.31 0.33 4.62 0.66 7 1 C6.19152271 2.16945792 5.37810888 3.33550461 4.5625 4.5 C4.11003906 5.1496875 3.65757812 5.799375 3.19140625 6.46875 C2.79824219 6.9740625 2.40507812 7.479375 2 8 C1.67 8 1.34 8 1 8 C0.67 5.36 0.34 2.72 0 0 Z " fill="#3EC785" transform="translate(434,411)"/>
<path d="M0 0 C2.76262553 0.3810518 3.84143894 0.83597132 5.8125 2.875 C6.204375 3.57625 6.59625 4.2775 7 5 C6.67 5.99 6.34 6.98 6 8 C1.125 3.375 1.125 3.375 0 0 Z " fill="#A5DF89" transform="translate(50,400)"/>
<path d="M0 0 C0 0.66 0 1.32 0 2 C-3.73563279 4.71682385 -7.55619192 5.86726461 -12 7 C-8.8380314 3.47318887 -4.98182478 0 0 0 Z " fill="#13BB55" transform="translate(86,341)"/>
<path d="M0 0 C2.875 0.25 2.875 0.25 6 1 C7.4375 2.875 7.4375 2.875 8 5 C7.67 5.99 7.34 6.98 7 8 C5.83035398 6.8572081 4.66435444 5.71068285 3.5 4.5625 C2.8503125 3.92441406 2.200625 3.28632813 1.53125 2.62890625 C0 1 0 1 0 0 Z " fill="#79D3A7" transform="translate(350,139)"/>
<path d="M0 0 C1.45880109 0.14107747 2.91703551 0.28802415 4.375 0.4375 C5.59316406 0.55931641 5.59316406 0.55931641 6.8359375 0.68359375 C9 1 9 1 11 2 C11 2.99 11 3.98 11 5 C9.53932801 4.54917531 8.08151968 4.08906463 6.625 3.625 C5.81289063 3.36976562 5.00078125 3.11453125 4.1640625 2.8515625 C2 2 2 2 0 0 Z " fill="#53CB8F" transform="translate(306,111)"/>
<path d="M0 0 C-3.0469629 1.69433918 -5.82821466 2.49467112 -9.25 3.125 C-10.58804688 3.37636719 -10.58804688 3.37636719 -11.953125 3.6328125 C-12.62859375 3.75398438 -13.3040625 3.87515625 -14 4 C-12 1 -12 1 -10.375 0.3125 C-6.900172 -0.14471421 -3.50413832 -0.05840231 0 0 Z " fill="#AEE296" transform="translate(216,104)"/>
<path d="M0 0 C3.53600465 1.91135386 5.78972846 3.62642766 8 7 C5.03 6.505 5.03 6.505 2 6 C1.34 4.02 0.68 2.04 0 0 Z " fill="#5CCA94" transform="translate(418,65)"/>
<path d="M0 0 C1.32 0.66 2.64 1.32 4 2 C0.535 4.97 0.535 4.97 -3 8 C-3 6.68 -3 5.36 -3 4 C-2.34 4 -1.68 4 -1 4 C-0.67 2.68 -0.34 1.36 0 0 Z " fill="#5BCC97" transform="translate(422,427)"/>
<path d="M0 0 C0.66 0 1.32 0 2 0 C2.66 0.99 3.32 1.98 4 3 C4.66 3.12375 5.32 3.2475 6 3.375 C6.66 3.58125 7.32 3.7875 8 4 C9.25 6.5625 9.25 6.5625 10 9 C4.98709528 7.56774151 3.01961382 5.05490999 0 1 C0 0.67 0 0.34 0 0 Z " fill="#1ABD55" transform="translate(262,88)"/>
<path d="M0 0 C1.43931117 0.45261358 2.87638999 0.91232979 4.3125 1.375 C5.11300781 1.63023437 5.91351563 1.88546875 6.73828125 2.1484375 C9 3 9 3 12 5 C10.56138706 4.91253716 9.12402492 4.80434652 7.6875 4.6875 C6.88699219 4.62949219 6.08648437 4.57148438 5.26171875 4.51171875 C2.62550449 3.91526958 1.66173706 3.09196025 0 1 C0 0.67 0 0.34 0 0 Z " fill="#7FD8AC" transform="translate(188,386)"/>
<path d="M0 0 C3.7910119 1.44950455 7.3874638 3.15172566 11 5 C10.01 5.66 9.02 6.32 8 7 C8 6.34 8 5.68 8 5 C6.8553125 4.814375 6.8553125 4.814375 5.6875 4.625 C3 4 3 4 0 2 C0 1.34 0 0.68 0 0 Z " fill="#56CA93" transform="translate(172,378)"/>
<path d="M0 0 C2.31 0.66 4.62 1.32 7 2 C7 3.65 7 5.3 7 7 C5.83040013 6.02433888 4.66438823 5.044375 3.5 4.0625 C2.8503125 3.51722656 2.200625 2.97195312 1.53125 2.41015625 C1.0259375 1.94480469 0.520625 1.47945312 0 1 C0 0.67 0 0.34 0 0 Z " fill="#4ECC8C" transform="translate(358,147)"/>
<path d="M0 0 C3.34373475 0.55728913 6.03312999 1.35173889 9 3 C8.67 3.99 8.34 4.98 8 6 C4.63408134 4.55746343 2.48952921 2.66735273 0 0 Z " fill="#5DCC96" transform="translate(338,129)"/>
<path d="M0 0 C-2.54456151 2.96865509 -5.48994665 4.3619751 -9 6 C-9 4.68 -9 3.36 -9 2 C-5.86501708 0.14223235 -3.62528568 -0.20140476 0 0 Z " fill="#AFE297" transform="translate(177,119)"/>
<path d="M0 0 C0.99 0 1.98 0 3 0 C1.50163895 3.11198065 -0.19933758 6.0534615 -2 9 C-3.125 5.25 -3.125 5.25 -2 3 C-1.34 3 -0.68 3 0 3 C0 2.01 0 1.02 0 0 Z " fill="#B0E19A" transform="translate(125,163)"/>
<path d="M0 0 C0 0.99 0 1.98 0 3 C-4.43076923 5.09230769 -4.43076923 5.09230769 -7.3125 4.625 C-7.869375 4.41875 -8.42625 4.2125 -9 4 C-2.25 0 -2.25 0 0 0 Z " fill="#60CA96" transform="translate(324,380)"/>
<path d="M0 0 C0.33 0 0.66 0 1 0 C1 2.97 1 5.94 1 9 C-0.32 9.33 -1.64 9.66 -3 10 C-2.01 6.7 -1.02 3.4 0 0 Z " fill="#58CC93" transform="translate(390,300)"/>
<path d="M0 0 C0 3 0 3 -1.1875 4.5625 C-3.32699313 6.25933938 -5.43483454 7.09872565 -8 8 C-6.49776416 3.79373966 -3.71449966 2.26099979 0 0 Z " fill="#97DC7A" transform="translate(52,100)"/>
<path d="M0 0 C0.66 0.33 1.32 0.66 2 1 C1.01 1.66 0.02 2.32 -1 3 C-0.67 2.01 -0.34 1.02 0 0 Z M-5 3 C-2.875 3.375 -2.875 3.375 -1 4 C-2.98 5.32 -4.96 6.64 -7 8 C-7 5 -7 5 -5 3 Z " fill="#A3E089" transform="translate(64,84)"/>
<path d="M0 0 C2.97 1.65 5.94 3.3 9 5 C9 5.99 9 6.98 9 8 C6 7 6 7 4 5 C3.34 4.67 2.68 4.34 2 4 C2 3.34 2 2.68 2 2 C1.34 2 0.68 2 0 2 C0 1.34 0 0.68 0 0 Z " fill="#61CF97" transform="translate(380,36)"/>
<path d="M0 0 C0.66 0.33 1.32 0.66 2 1 C1.01 2.485 1.01 2.485 0 4 C-1.9453125 4.29296875 -1.9453125 4.29296875 -4.125 4.1875 C-5.40375 4.125625 -6.6825 4.06375 -8 4 C-5.31143836 2.20762558 -3.0466145 1.01553817 0 0 Z " fill="#A9E090" transform="translate(157,17)"/>
<path d="M0 0 C0.99 0 1.98 0 3 0 C3 0.99 3 1.98 3 3 C0 5.1875 0 5.1875 -3 7 C-3 5.68 -3 4.36 -3 3 C-2.01 3 -1.02 3 0 3 C0 2.01 0 1.02 0 0 Z " fill="#4AC68A" transform="translate(416,433)"/>
<path d="M0 0 C0.625 1.8125 0.625 1.8125 1 4 C-1 7 -1 7 -3.125 7.6875 C-3.74375 7.790625 -4.3625 7.89375 -5 8 C-3.62845496 5.04590299 -2.01136276 2.55991624 0 0 Z " fill="#60CD98" transform="translate(370,338)"/>
<path d="M0 0 C2.56616632 3.84924948 2.55097676 6.4349304 3 11 C2.67 10.34 2.34 9.68 2 9 C1.34 9 0.68 9 0 9 C0 6.03 0 3.06 0 0 Z " fill="#5BCA91" transform="translate(489,177)"/>
<path d="M0 0 C0.99 0.33 1.98 0.66 3 1 C3 2.32 3 3.64 3 5 C3.66 5 4.32 5 5 5 C5 6.65 5 8.3 5 10 C2.35534962 6.8745041 1.15585285 3.91211733 0 0 Z " fill="#7DD4A7" transform="translate(380,176)"/>
<path d="M0 0 C3.82097239 0.53069061 6.06171403 1.49701566 9 4 C6.36 3.67 3.72 3.34 1 3 C0.67 2.01 0.34 1.02 0 0 Z " fill="#55C992" transform="translate(348,20)"/>
<path d="M0 0 C3.37462715 0.54723683 5.08235 1.0549 8 3 C8 3.66 8 4.32 8 5 C4.62496331 3.8141763 2.35277269 2.72426311 0 0 Z " fill="#68CF9D" transform="translate(114,460)"/>
<path d="M0 0 C2.3125 0.125 2.3125 0.125 5 1 C6.8125 4.0625 6.8125 4.0625 8 7 C4.2047869 5.50902342 2.38957269 3.24299151 0 0 Z " fill="#81D4AB" transform="translate(78,432)"/>
<path d="M0 0 C2.475 0.99 2.475 0.99 5 2 C5 3.32 5 4.64 5 6 C4.01 5.67 3.02 5.34 2 5 C0.8125 2.4375 0.8125 2.4375 0 0 Z " fill="#30C17B" transform="translate(183,384)"/>
<path d="M0 0 C1 2 1 2 0.375 4.0625 C-1 6 -1 6 -3.625 6.75 C-4.800625 6.87375 -4.800625 6.87375 -6 7 C-4.02 4.69 -2.04 2.38 0 0 Z " fill="#7CD2A8" transform="translate(360,350)"/>
<path d="M0 0 C0.99 0 1.98 0 3 0 C1.7508258 3.45925163 0.32472205 6.14693203 -2 9 C-2 7.35 -2 5.7 -2 4 C-1.34 4 -0.68 4 0 4 C0 2.68 0 1.36 0 0 Z " fill="#B1E29D" transform="translate(119,172)"/>
<path d="M0 0 C0.66 0 1.32 0 2 0 C2 0.66 2 1.32 2 2 C2.99 2.33 3.98 2.66 5 3 C5.33 4.98 5.66 6.96 6 9 C3.59927045 6.11912454 1.52708963 3.43595166 0 0 Z " fill="#7AD5A5" transform="translate(372,164)"/>
<path d="M0 0 C3.36591866 1.44253657 5.51047079 3.33264727 8 6 C5.69 5.34 3.38 4.68 1 4 C0.67 2.68 0.34 1.36 0 0 Z " fill="#69CF9D" transform="translate(404,53)"/>
<path d="M0 0 C2.475 0.495 2.475 0.495 5 1 C5.33 2.65 5.66 4.3 6 6 C3.97945196 4.35830472 1.97956942 2.69088222 0 1 C0 0.67 0 0.34 0 0 Z " fill="#51CB8B" transform="translate(72,426)"/>
<path d="M0 0 C0.66 0.33 1.32 0.66 2 1 C0.25 3.0625 0.25 3.0625 -2 5 C-4.25 4.75 -4.25 4.75 -6 4 C-4.02 2.68 -2.04 1.36 0 0 Z " fill="#B3E5A0" transform="translate(117,37)"/>
<path d="" fill="#FFFFFF" transform="translate(0,0)"/>
<path d="" fill="#FFFFFF" transform="translate(0,0)"/>
<path d="" fill="#FFFFFF" transform="translate(0,0)"/>
<path d="" fill="#FFFFFF" transform="translate(0,0)"/>
<path d="" fill="#FFFFFF" transform="translate(0,0)"/>
<path d="" fill="#FFFFFF" transform="translate(0,0)"/>
<path d="" fill="#FFFFFF" transform="translate(0,0)"/>
<path d="" fill="#FFFFFF" transform="translate(0,0)"/>
<path d="" fill="#FFFFFF" transform="translate(0,0)"/>
<path d="" fill="#FFFFFF" transform="translate(0,0)"/>
<path d="" fill="#FFFFFF" transform="translate(0,0)"/>
<path d="" fill="#FFFFFF" transform="translate(0,0)"/>
<path d="" fill="#FFFFFF" transform="translate(0,0)"/>
<path d="" fill="#FFFFFF" transform="translate(0,0)"/>
<path d="" fill="#FFFFFF" transform="translate(0,0)"/>
<path d="" fill="#FFFFFF" transform="translate(0,0)"/>
<path d="" fill="#FFFFFF" transform="translate(0,0)"/>
<path d="" fill="#FFFFFF" transform="translate(0,0)"/>
<path d="" fill="#FFFFFF" transform="translate(0,0)"/>
<path d="" fill="#FFFFFF" transform="translate(0,0)"/>
<path d="" fill="#FFFFFF" transform="translate(0,0)"/>
<path d="" fill="#FFFFFF" transform="translate(0,0)"/>
<path d="" fill="#FFFFFF" transform="translate(0,0)"/>
<path d="" fill="#FFFFFF" transform="translate(0,0)"/>
<path d="" fill="#FFFFFF" transform="translate(0,0)"/>
<path d="" fill="#FFFFFF" transform="translate(0,0)"/>
<path d="" fill="#FFFFFF" transform="translate(0,0)"/>
<path d="" fill="#FFFFFF" transform="translate(0,0)"/>
<path d="" fill="#FFFFFF" transform="translate(0,0)"/>
<path d="" fill="#FFFFFF" transform="translate(0,0)"/>
<path d="" fill="#FFFFFF" transform="translate(0,0)"/>
<path d="" fill="#FFFFFF" transform="translate(0,0)"/>
<path d="" fill="#FFFFFF" transform="translate(0,0)"/>
<path d="" fill="#FFFFFF" transform="translate(0,0)"/>
<path d="" fill="#FFFFFF" transform="translate(0,0)"/>
<path d="" fill="#FFFFFF" transform="translate(0,0)"/>
<path d="" fill="#FFFFFF" transform="translate(0,0)"/>
<path d="" fill="#FFFFFF" transform="translate(0,0)"/>
<path d="" fill="#FFFFFF" transform="translate(0,0)"/>
<path d="" fill="#FFFFFF" transform="translate(0,0)"/>
</svg>
