<?xml version="1.0" standalone="no"?>
<!DOCTYPE svg PUBLIC "-//W3C//DTD SVG 20010904//EN"
 "http://www.w3.org/TR/2001/REC-SVG-20010904/DTD/svg10.dtd">
<svg version="1.0" xmlns="http://www.w3.org/2000/svg"
 width="500.000000pt" height="500.000000pt" viewBox="0 0 500.000000 500.000000"
 preserveAspectRatio="xMidYMid meet">
<metadata>
Created by potrace 1.14, written by Peter Selinger 2001-2017
</metadata>
<g transform="translate(0.000000,500.000000) scale(0.100000,-0.100000)"
fill="#000000" stroke="none">
<path d="M2310 4990 c-597 -49 -1159 -308 -1575 -726 -320 -321 -536 -696
-650 -1125 -59 -224 -79 -381 -78 -624 1 -304 33 -522 118 -785 98 -304 234
-552 447 -816 412 -511 1027 -840 1693 -905 146 -14 450 -6 588 16 431 68 801
221 1140 471 135 99 359 315 457 439 449 569 631 1266 514 1975 -67 411 -250
821 -512 1150 -93 117 -280 305 -387 390 -266 211 -595 378 -918 464 -228 61
-601 95 -837 76z m418 -1005 c115 -19 331 -89 438 -143 252 -127 485 -344 626
-585 174 -298 244 -686 183 -1018 -99 -535 -475 -976 -983 -1153 -169 -58
-300 -80 -492 -80 -195 1 -302 17 -471 74 -229 76 -400 182 -586 363 -295 288
-443 643 -443 1066 0 179 18 295 70 452 78 237 193 423 370 599 224 225 493
366 800 420 133 23 360 26 488 5z"/>
</g>
</svg>
